<svg xmlns="http://www.w3.org/2000/svg" width="460" height="366.861" viewBox="0 0 460 366.861">
  <g id="组_16105" data-name="组 16105" transform="translate(-731 -556.654)">
    <text id="STONKS" transform="translate(731 896.515)" fill="#fff" font-size="108" font-family="Montserrat-Bold, Montserrat" font-weight="700"><tspan x="0" y="0">STONKS</tspan></text>
    <g id="组_16100" data-name="组 16100" transform="translate(-0.164)">
      <path id="Handshake_HNS_" data-name="Handshake (HNS)" d="M11.612,20.629,0,0,22.5.009a2.064,2.064,0,0,1,1.628.939c.358.59,2.183,3.605,4.383,7.219,2.63,4.33,5.77,9.509,7.568,12.462Z" transform="translate(1032.98 662.864) rotate(30)" fill="#9e9e9e"/>
      <path id="Handshake_HNS_2" data-name="Handshake (HNS)" d="M64.786,118.067a1.6,1.6,0,0,1-1.485.975H54.1c-4.867,0-10.476-.009-13.821-.009L76.03,54.856a3.436,3.436,0,0,0-1.324-4.679,3.4,3.4,0,0,0-1.664-.438h0l-60.921.081L0,28.841H88.8c.054,0,.1-.018.143-.018a3.345,3.345,0,0,0,.59-.081,3.42,3.42,0,0,0,.429-.134c.072-.027.152-.063.224-.089a3.39,3.39,0,0,0,1.628-1.476L106.437,0h24.154Z" transform="translate(937.141 639.284) rotate(30)" fill="#9e9e9e"/>
      <path id="Handshake_HNS_3" data-name="Handshake (HNS)" d="M12,59.007c-.778-1.279-1.789-2.943-2.889-4.75C5.419,48.155.687,40.346.15,39.487a1.822,1.822,0,0,1,.116-1.673C1.125,36.275,17.3,7.13,21.244.027L44.87,0Z" transform="translate(928.178 699.486) rotate(30)" fill="#414541"/>
      <path id="Handshake_HNS_4" data-name="Handshake (HNS)" d="M11.746,43.047,0,22.186,11.835,0,23.706,20.549C20.021,27.5,14.26,38.333,11.746,43.047Z" transform="translate(905.613 658.517) rotate(30)" fill="#9e9e9e"/>
      <path id="Handshake_HNS_5" data-name="Handshake (HNS)" d="M26.354,20.629H13.562a2.084,2.084,0,0,1-1.61-.939l-3.82-6.3C5.4,8.9,1.923,3.167,0,0H24.458L36.069,20.629Z" transform="translate(866.479 665.559) rotate(30)" fill="#414541"/>
      <path id="Handshake_HNS_6" data-name="Handshake (HNS)" d="M65.8.984A1.594,1.594,0,0,1,67.272,0H90.379L54.534,64.177c-.027.054-.045.107-.072.17-.054.107-.1.215-.143.331s-.072.215-.1.331-.054.206-.072.313a2.672,2.672,0,0,0-.036.385c0,.054-.018.107-.018.17a.6.6,0,0,0,.018.125,2.669,2.669,0,0,0,.036.376,1.911,1.911,0,0,0,.054.313c.027.107.063.215.1.322s.072.206.116.313a2.15,2.15,0,0,0,.152.286,2.417,2.417,0,0,0,.179.277,1.943,1.943,0,0,0,.215.259c.072.081.143.161.224.242a2.784,2.784,0,0,0,.25.206c.1.072.2.143.3.206l.107.081c.036.027.081.027.125.054a3.269,3.269,0,0,0,.555.224c.072.018.134.045.206.063a3.2,3.2,0,0,0,.778.1H59.06l59.391-.081c1.574,2.728,4.509,7.872,7,12.247q2.872,5.045,4.759,8.32H41.831a.616.616,0,0,0-.116.018,3.415,3.415,0,0,0-2.97,1.8L24.109,119.051H0C10.529,100.13,65.09,2.236,65.8.984Z" transform="translate(929.676 556.654) rotate(30)" fill="#fff"/>
      <path id="Handshake_HNS_7" data-name="Handshake (HNS)" d="M32.9,0,35.05,3.534c3.766,6.217,9.089,14.993,9.653,15.906a1.822,1.822,0,0,1-.116,1.673L23.617,58.881,0,58.908Z" transform="translate(982.816 591.374) rotate(30)" fill="#9e9e9e"/>
      <path id="Handshake_HNS_8" data-name="Handshake (HNS)" d="M12.139,0,23.885,20.871,11.907,43.011c-1.431-2.487-3.2-5.6-4.867-8.516-3.292-5.761-5.69-9.957-7.04-12.3C2.567,17.525,9.313,5.153,12.139,0Z" transform="translate(1015.607 656.562) rotate(30)" fill="#414541"/>
    </g>
  </g>
</svg>
